<?xml version="1.0" encoding="UTF-8"?>
<svg xmlns="http://www.w3.org/2000/svg" width="1200" height="675" viewBox="0 0 1200 675" role="img">
<title>CoreLab plan error-latency distribution</title>
<desc>Seventy completed numerical plans over 200 unique inputs per plan; failed plans are reported separately.</desc>
<rect width="1200" height="675" fill="#ffffff"/>
<text x="54.0" y="58.0" font-family="sans-serif" font-size="30" font-weight="700" text-anchor="start" fill="#172033">CoreLab plan error-latency distribution</text>
<text x="54.0" y="91.0" font-family="sans-serif" font-size="17" font-weight="400" text-anchor="start" fill="#526072">Seventy completed numerical plans over 200 unique inputs per plan; failed plans are reported separately.</text>
<line x1="100" y1="570" x2="1135" y2="570" stroke="#9ba7b5" stroke-width="2"/>
<line x1="100" y1="130" x2="100" y2="570" stroke="#9ba7b5" stroke-width="2"/>
<text x="620.0" y="635.0" font-family="sans-serif" font-size="19" font-weight="400" text-anchor="middle" fill="#172033">Mean per-input total latency (ms)</text>
<text x="80.0" y="120.0" font-family="sans-serif" font-size="17" font-weight="400" text-anchor="start" fill="#172033">log10(max RMS error)</text>
<circle cx="100.0" cy="297.4" r="5" fill="#2da44e"><title>elasm_15: 411.867 ms, RMS 0.00039984</title></circle>
<circle cx="103.1" cy="269.5" r="5" fill="#2da44e"><title>elasm_16: 415.346 ms, RMS 0.00223583</title></circle>
<circle cx="197.3" cy="291.7" r="5" fill="#2da44e"><title>elasm_17: 520.835 ms, RMS 0.000568506</title></circle>
<circle cx="146.2" cy="291.0" r="5" fill="#2da44e"><title>elasm_18: 463.634 ms, RMS 0.000594124</title></circle>
<circle cx="262.0" cy="344.9" r="5" fill="#2da44e"><title>elasm_19: 593.357 ms, RMS 2.13485e-05</title></circle>
<circle cx="171.2" cy="333.6" r="5" fill="#2da44e"><title>elasm_20: 491.622 ms, RMS 4.29752e-05</title></circle>
<circle cx="131.2" cy="270.1" r="5" fill="#2da44e"><title>elasm_21: 446.865 ms, RMS 0.00215424</title></circle>
<circle cx="347.8" cy="380.7" r="5" fill="#2da44e"><title>elasm_22: 689.534 ms, RMS 2.34876e-06</title></circle>
<circle cx="347.6" cy="392.1" r="5" fill="#2da44e"><title>elasm_23: 689.322 ms, RMS 1.16441e-06</title></circle>
<circle cx="328.5" cy="401.6" r="5" fill="#2da44e"><title>elasm_24: 667.931 ms, RMS 6.45583e-07</title></circle>
<circle cx="335.9" cy="411.8" r="5" fill="#2da44e"><title>elasm_25: 676.156 ms, RMS 3.44023e-07</title></circle>
<circle cx="339.3" cy="424.4" r="5" fill="#2da44e"><title>elasm_26: 679.964 ms, RMS 1.58501e-07</title></circle>
<circle cx="345.9" cy="436.2" r="5" fill="#2da44e"><title>elasm_27: 687.365 ms, RMS 7.62107e-08</title></circle>
<circle cx="333.6" cy="445.9" r="5" fill="#2da44e"><title>elasm_28: 673.63 ms, RMS 4.18966e-08</title></circle>
<circle cx="368.7" cy="390.2" r="5" fill="#2da44e"><title>elasm_29: 712.934 ms, RMS 1.30265e-06</title></circle>
<circle cx="413.5" cy="462.8" r="5" fill="#2da44e"><title>elasm_30: 763.076 ms, RMS 1.4798e-08</title></circle>
<circle cx="416.0" cy="467.2" r="5" fill="#2da44e"><title>elasm_31: 765.986 ms, RMS 1.12421e-08</title></circle>
<circle cx="412.5" cy="468.5" r="5" fill="#2da44e"><title>elasm_32: 761.976 ms, RMS 1.03796e-08</title></circle>
<circle cx="430.2" cy="500.5" r="5" fill="#2da44e"><title>elasm_33: 781.793 ms, RMS 1.4467e-09</title></circle>
<circle cx="786.6" cy="513.9" r="5" fill="#2da44e"><title>elasm_34: 1181.15 ms, RMS 6.32401e-10</title></circle>
<circle cx="584.5" cy="524.3" r="5" fill="#2da44e"><title>elasm_35: 954.701 ms, RMS 3.33029e-10</title></circle>
<circle cx="566.4" cy="542.1" r="5" fill="#2da44e"><title>elasm_37: 934.453 ms, RMS 1.10646e-10</title></circle>
<circle cx="560.3" cy="552.1" r="5" fill="#2da44e"><title>elasm_38: 927.58 ms, RMS 5.98991e-11</title></circle>
<circle cx="849.2" cy="562.9" r="5" fill="#2da44e"><title>elasm_39: 1251.31 ms, RMS 3.07447e-11</title></circle>
<circle cx="848.2" cy="565.7" r="5" fill="#2da44e"><title>elasm_40: 1250.24 ms, RMS 2.59058e-11</title></circle>
<circle cx="866.1" cy="570.0" r="5" fill="#2da44e"><title>elasm_42: 1270.28 ms, RMS 1.98261e-11</title></circle>
<circle cx="786.8" cy="558.8" r="5" fill="#2da44e"><title>elasm_43: 1181.42 ms, RMS 3.95592e-11</title></circle>
<circle cx="832.3" cy="559.0" r="5" fill="#2da44e"><title>elasm_44: 1232.39 ms, RMS 3.91526e-11</title></circle>
<circle cx="1090.7" cy="553.0" r="5" fill="#2da44e"><title>elasm_45: 1521.86 ms, RMS 5.67546e-11</title></circle>
<circle cx="1110.0" cy="553.0" r="5" fill="#2da44e"><title>elasm_46: 1543.53 ms, RMS 5.65836e-11</title></circle>
<circle cx="1093.9" cy="553.0" r="5" fill="#2da44e"><title>elasm_47: 1525.46 ms, RMS 5.65837e-11</title></circle>
<circle cx="1098.4" cy="553.0" r="5" fill="#2da44e"><title>elasm_48: 1530.53 ms, RMS 5.65588e-11</title></circle>
<circle cx="1089.4" cy="553.0" r="5" fill="#2da44e"><title>elasm_49: 1520.43 ms, RMS 5.65694e-11</title></circle>
<circle cx="1084.7" cy="553.0" r="5" fill="#2da44e"><title>elasm_50: 1515.16 ms, RMS 5.65606e-11</title></circle>
<circle cx="343.4" cy="160.0" r="5" fill="#1f6feb"><title>eva_15: 684.604 ms, RMS 1.92666</title></circle>
<circle cx="347.0" cy="221.3" r="5" fill="#1f6feb"><title>eva_16: 688.622 ms, RMS 0.0438796</title></circle>
<circle cx="391.2" cy="279.8" r="5" fill="#1f6feb"><title>eva_17: 738.111 ms, RMS 0.00118619</title></circle>
<circle cx="392.3" cy="329.4" r="5" fill="#1f6feb"><title>eva_18: 739.404 ms, RMS 5.55501e-05</title></circle>
<circle cx="387.5" cy="345.3" r="5" fill="#1f6feb"><title>eva_19: 734.045 ms, RMS 2.08833e-05</title></circle>
<circle cx="327.9" cy="223.3" r="5" fill="#1f6feb"><title>eva_20: 667.17 ms, RMS 0.0387924</title></circle>
<circle cx="326.6" cy="267.4" r="5" fill="#1f6feb"><title>eva_21: 665.748 ms, RMS 0.00255436</title></circle>
<circle cx="342.4" cy="306.1" r="5" fill="#1f6feb"><title>eva_22: 683.423 ms, RMS 0.00023408</title></circle>
<circle cx="330.7" cy="357.7" r="5" fill="#1f6feb"><title>eva_23: 670.401 ms, RMS 9.6771e-06</title></circle>
<circle cx="326.1" cy="300.5" r="5" fill="#1f6feb"><title>eva_24: 665.224 ms, RMS 0.00033016</title></circle>
<circle cx="329.8" cy="367.9" r="5" fill="#1f6feb"><title>eva_25: 669.357 ms, RMS 5.17163e-06</title></circle>
<circle cx="331.9" cy="422.0" r="5" fill="#1f6feb"><title>eva_26: 671.677 ms, RMS 1.83577e-07</title></circle>
<circle cx="329.0" cy="435.9" r="5" fill="#1f6feb"><title>eva_27: 668.435 ms, RMS 7.76263e-08</title></circle>
<circle cx="532.0" cy="447.3" r="5" fill="#1f6feb"><title>eva_28: 895.938 ms, RMS 3.85277e-08</title></circle>
<circle cx="529.7" cy="458.0" r="5" fill="#1f6feb"><title>eva_29: 893.3 ms, RMS 1.98618e-08</title></circle>
<circle cx="415.1" cy="316.1" r="5" fill="#1f6feb"><title>eva_30: 764.934 ms, RMS 0.000126564</title></circle>
<circle cx="407.5" cy="365.9" r="5" fill="#1f6feb"><title>eva_31: 756.365 ms, RMS 5.84567e-06</title></circle>
<circle cx="405.7" cy="390.7" r="5" fill="#1f6feb"><title>eva_32: 754.37 ms, RMS 1.26504e-06</title></circle>
<circle cx="457.5" cy="432.4" r="5" fill="#1f6feb"><title>eva_33: 812.377 ms, RMS 9.63064e-08</title></circle>
<circle cx="461.1" cy="463.1" r="5" fill="#1f6feb"><title>eva_34: 816.439 ms, RMS 1.44782e-08</title></circle>
<circle cx="661.9" cy="479.4" r="5" fill="#1f6feb"><title>eva_35: 1041.44 ms, RMS 5.30943e-09</title></circle>
<circle cx="622.5" cy="399.6" r="5" fill="#1f6feb"><title>eva_36: 997.34 ms, RMS 7.29197e-07</title></circle>
<circle cx="629.0" cy="466.3" r="5" fill="#1f6feb"><title>eva_37: 1004.57 ms, RMS 1.18901e-08</title></circle>
<circle cx="625.1" cy="537.3" r="5" fill="#1f6feb"><title>eva_38: 1000.23 ms, RMS 1.48725e-10</title></circle>
<circle cx="626.1" cy="555.2" r="5" fill="#1f6feb"><title>eva_39: 1001.34 ms, RMS 4.95412e-11</title></circle>
<circle cx="627.4" cy="443.4" r="5" fill="#1f6feb"><title>eva_40: 1002.79 ms, RMS 4.90823e-08</title></circle>
<circle cx="615.1" cy="521.3" r="5" fill="#1f6feb"><title>eva_41: 988.993 ms, RMS 3.99376e-10</title></circle>
<circle cx="624.6" cy="556.8" r="5" fill="#1f6feb"><title>eva_42: 999.696 ms, RMS 4.47334e-11</title></circle>
<circle cx="860.5" cy="524.8" r="5" fill="#1f6feb"><title>eva_43: 1263.99 ms, RMS 3.23178e-10</title></circle>
<circle cx="853.0" cy="553.0" r="5" fill="#1f6feb"><title>eva_44: 1255.63 ms, RMS 5.67085e-11</title></circle>
<circle cx="727.1" cy="504.1" r="5" fill="#1f6feb"><title>eva_45: 1114.54 ms, RMS 1.15676e-09</title></circle>
<circle cx="715.7" cy="551.2" r="5" fill="#1f6feb"><title>eva_46: 1101.71 ms, RMS 6.31089e-11</title></circle>
<circle cx="717.7" cy="559.0" r="5" fill="#1f6feb"><title>eva_47: 1104.01 ms, RMS 3.9017e-11</title></circle>
<circle cx="963.4" cy="552.0" r="5" fill="#1f6feb"><title>eva_48: 1379.31 ms, RMS 6.02573e-11</title></circle>
<circle cx="975.7" cy="553.0" r="5" fill="#1f6feb"><title>eva_49: 1393.07 ms, RMS 5.6558e-11</title></circle>
<circle cx="962.1" cy="553.0" r="5" fill="#1f6feb"><title>eva_50: 1377.82 ms, RMS 5.65583e-11</title></circle>
<text x="935.0" y="135.0" font-family="sans-serif" font-size="17" font-weight="700" text-anchor="start" fill="#1f6feb">EVA</text>
<text x="1030.0" y="135.0" font-family="sans-serif" font-size="17" font-weight="700" text-anchor="start" fill="#2da44e">ELASM</text>
</svg>
